<?xml version="1.0" encoding="UTF-8" standalone="no"?>
<!-- Created with Inkscape (http://www.inkscape.org/) -->

<svg
   xmlns:dc="http://purl.org/dc/elements/1.1/"
   xmlns:cc="http://creativecommons.org/ns#"
   xmlns:rdf="http://www.w3.org/1999/02/22-rdf-syntax-ns#"
   xmlns:svg="http://www.w3.org/2000/svg"
   xmlns="http://www.w3.org/2000/svg"
   xmlns:sodipodi="http://sodipodi.sourceforge.net/DTD/sodipodi-0.dtd"
   xmlns:inkscape="http://www.inkscape.org/namespaces/inkscape"
   width="32"
   height="32"
   id="svg2"
   version="1.1"
   inkscape:version="0.48.2 r9819"
   sodipodi:docname="New document 1">
  <defs
     id="defs4" />
  <sodipodi:namedview
     id="base"
     pagecolor="#ffffff"
     bordercolor="#666666"
     borderopacity="1.0"
     inkscape:pageopacity="0.0"
     inkscape:pageshadow="2"
     inkscape:zoom="7.9195959"
     inkscape:cx="39.644019"
     inkscape:cy="33.558442"
     inkscape:document-units="px"
     inkscape:current-layer="layer1"
     showgrid="false"
     inkscape:window-width="954"
     inkscape:window-height="728"
     inkscape:window-x="127"
     inkscape:window-y="30"
     inkscape:window-maximized="0" />
  <metadata
     id="metadata7">
    <rdf:RDF>
      <cc:Work
         rdf:about="">
        <dc:format>image/svg+xml</dc:format>
        <dc:type
           rdf:resource="http://purl.org/dc/dcmitype/StillImage" />
        <dc:title></dc:title>
      </cc:Work>
    </rdf:RDF>
  </metadata>
  <g
     inkscape:label="Layer 1"
     inkscape:groupmode="layer"
     id="layer1"
     transform="translate(0,-1020.3622)">
    <path
       style="fill:#000000"
       d="m 2.203386,1051.2988 c 0.059642,-1.0531 0.2225982,-1.6451 0.55733,-2.0245 0.2514923,-0.2851 1.3576177,-0.7702 3.263191,-1.4313 3.989836,-1.3841 5.637081,-2.2772 6.538646,-3.5453 0.492943,-0.6933 0.587036,-1.0629 0.526474,-2.0682 -0.07529,-1.2497 -0.702755,-2.8778 -1.462613,-3.7951 -0.405531,-0.4896 -0.559904,-0.9721 -0.538873,-1.6846 0.03351,-1.1353 0.03257,-2.0434 -0.0031,-3.0392 -0.05301,-1.4772 0.410821,-2.6327 1.452064,-3.6176 0.887565,-0.8394 1.854076,-1.2282 3.263298,-1.313 2.664972,-0.1603 4.69618,1.3056 5.366978,3.8733 0.134086,0.5133 0.139231,0.7455 0.03507,1.5831 -0.09666,0.7774 -0.09551,1.1463 0.0055,1.7729 0.159473,0.9889 0.04287,1.5992 -0.441597,2.3108 -0.814841,1.1967 -1.400854,2.982 -1.413223,4.3053 -0.0062,0.6608 0.03215,0.8307 0.294188,1.3038 0.757796,1.3682 2.300339,2.2356 6.688687,3.7615 3.517677,1.2231 3.75076,1.4411 3.871705,3.6216 l 0.05759,1.0383 -14.060418,0 -14.0604179,0 0.059559,-1.0518 z"
       id="path2996"
       inkscape:connector-curvature="0" />
  </g>
</svg>
