<?xml version="1.0" encoding="UTF-8" standalone="no"?>
<!-- Created with Inkscape (http://www.inkscape.org/) -->

<svg
   xmlns:dc="http://purl.org/dc/elements/1.1/"
   xmlns:cc="http://creativecommons.org/ns#"
   xmlns:rdf="http://www.w3.org/1999/02/22-rdf-syntax-ns#"
   xmlns:svg="http://www.w3.org/2000/svg"
   xmlns="http://www.w3.org/2000/svg"
   xmlns:sodipodi="http://sodipodi.sourceforge.net/DTD/sodipodi-0.dtd"
   xmlns:inkscape="http://www.inkscape.org/namespaces/inkscape"
   width="800"
   height="600"
   id="svg2"
   version="1.1"
   inkscape:version="0.48.3.1 r9886"
   sodipodi:docname="bg1.svg">
  <defs
     id="defs4" />
  <sodipodi:namedview
     id="base"
     pagecolor="#000000"
     bordercolor="#666666"
     borderopacity="1.0"
     inkscape:pageopacity="1"
     inkscape:pageshadow="2"
     inkscape:zoom="1"
     inkscape:cx="394.82498"
     inkscape:cy="316.37806"
     inkscape:document-units="px"
     inkscape:current-layer="layer1"
     showgrid="false"
     inkscape:window-width="1600"
     inkscape:window-height="838"
     inkscape:window-x="-8"
     inkscape:window-y="-8"
     inkscape:window-maximized="1" />
  <metadata
     id="metadata7">
    <rdf:RDF>
      <cc:Work
         rdf:about="">
        <dc:format>image/svg+xml</dc:format>
        <dc:type
           rdf:resource="http://purl.org/dc/dcmitype/StillImage" />
        <dc:title />
      </cc:Work>
    </rdf:RDF>
  </metadata>
  <g
     inkscape:label="Layer 1"
     inkscape:groupmode="layer"
     id="layer1"
     transform="translate(0,-452.36218)">
    <text
       sodipodi:linespacing="125%"
       id="text3845"
       y="514.435"
       x="58.905441"
       style="font-size:35.8913002px;font-style:normal;font-weight:normal;line-height:125%;letter-spacing:0px;word-spacing:0px;fill:#77ab00;fill-opacity:1;stroke:none;font-family:Sans"
       xml:space="preserve"><tspan
         id="tspan3847"
         style="font-style:normal;font-variant:normal;font-weight:normal;font-stretch:normal;fill:#77ab00;fill-opacity:1;font-family:Sketch Block;-inkscape-font-specification:Sketch Block"
         y="514.435"
         x="58.905441"
         sodipodi:role="line"><tspan
   id="tspan3849"
   style="fill:#ffffff;fill-opacity:1">1. </tspan>Drop <tspan
   id="tspan3851"
   style="fill:#ffffff;fill-opacity:1">an user into this box</tspan></tspan></text>
    <text
       sodipodi:linespacing="125%"
       id="text3031"
       y="909.72791"
       x="75.57254"
       style="font-size:35.8913002px;font-style:normal;font-weight:normal;line-height:125%;letter-spacing:0px;word-spacing:0px;fill:#ffffff;fill-opacity:1;stroke:none;font-family:Sans"
       xml:space="preserve"><tspan
         id="tspan3033"
         style="font-style:normal;font-variant:normal;font-weight:normal;font-stretch:normal;fill:#ffffff;fill-opacity:1;font-family:Sketch Block;-inkscape-font-specification:Sketch Block"
         y="909.72791"
         x="75.57254"
         sodipodi:role="line">2. Enjoy his/her music taste</tspan></text>
    <text
       xml:space="preserve"
       style="font-size:21.88426781px;font-style:normal;font-weight:normal;line-height:125%;letter-spacing:0px;word-spacing:0px;opacity:0.4424779;fill:#ffffff;fill-opacity:1;stroke:none;font-family:Sans"
       x="57.596886"
       y="561.00928"
       id="text2985"
       sodipodi:linespacing="125%"><tspan
         sodipodi:role="line"
         x="57.596886"
         y="561.00928"
         style="font-style:normal;font-variant:normal;font-weight:normal;font-stretch:normal;fill:#ffffff;fill-opacity:1;font-family:Sketch Block;-inkscape-font-specification:Sketch Block"
         id="tspan3757">Note: The user needs to have starred or favorites published</tspan></text>
    <rect
       ry="16.028872"
       y="600.39355"
       x="237.98203"
       height="233.22008"
       width="233.22008"
       id="rect3773"
       style="fill:none;stroke:#ffffff;stroke-width:1.12202096;stroke-opacity:1" />
    <rect
       style="fill:#151515;fill-opacity:1;stroke:#ffffff;stroke-width:1.12202096;stroke-opacity:1"
       id="rect3771"
       width="233.22008"
       height="233.22008"
       x="822.45117"
       y="682.39355"
       ry="16.028872" />
    <rect
       style="fill:#ffffff;fill-opacity:1;stroke:none"
       id="rect3837"
       width="142.65695"
       height="40.072178"
       x="906.36755"
       y="696.8667"
       ry="0" />
    <path
       style="fill:none;stroke:#ffffff;stroke-width:0.60599512px;stroke-linecap:butt;stroke-linejoin:miter;stroke-opacity:1"
       d="m 896.34948,681.65098 0,233.19658"
       id="path3775"
       inkscape:connector-curvature="0" />
    <path
       style="fill:none;stroke:#ffffff;stroke-width:1.12202096px;stroke-linecap:butt;stroke-linejoin:miter;stroke-opacity:1"
       d="m 895.94876,700.07243 -68.1227,0"
       id="path3777"
       inkscape:connector-curvature="0" />
    <g
       id="g3793"
       transform="matrix(0.96516787,0,0,0.96516787,715.20204,88.335582)"
       style="fill:#151515;fill-opacity:1">
      <text
         sodipodi:linespacing="125%"
         id="text3795"
         y="649.7915"
         x="241.29105"
         style="font-size:15.5538578px;font-style:normal;font-weight:normal;line-height:125%;letter-spacing:0px;word-spacing:0px;fill:#151515;fill-opacity:1;stroke:none;font-family:Sans"
         xml:space="preserve"><tspan
           style="fill:#151515;fill-opacity:1"
           y="649.7915"
           x="241.29105"
           id="tspan3797"
           sodipodi:role="line">Friend 1</tspan></text>
      <text
         xml:space="preserve"
         style="font-size:15.5538578px;font-style:normal;font-weight:normal;line-height:125%;letter-spacing:0px;word-spacing:0px;fill:#151515;fill-opacity:1;stroke:none;font-family:Sans"
         x="241.29105"
         y="664.7915"
         id="text3799"
         sodipodi:linespacing="125%"><tspan
           sodipodi:role="line"
           id="tspan3801"
           x="241.29105"
           y="664.7915"
           style="fill:#151515;fill-opacity:1">Favorite song</tspan></text>
    </g>
    <g
       id="g3803"
       transform="matrix(0.96516787,0,0,0.96516787,715.20204,124.87407)">
      <text
         sodipodi:linespacing="125%"
         id="text3805"
         y="649.7915"
         x="241.29105"
         style="font-size:15.5538578px;font-style:normal;font-weight:normal;line-height:125%;letter-spacing:0px;word-spacing:0px;fill:#000000;fill-opacity:1;stroke:none;font-family:Sans"
         xml:space="preserve"><tspan
           style="fill:#ffffff;fill-opacity:1"
           y="649.7915"
           x="241.29105"
           id="tspan3807"
           sodipodi:role="line">Friend 2</tspan></text>
      <text
         xml:space="preserve"
         style="font-size:15.5538578px;font-style:normal;font-weight:normal;line-height:125%;letter-spacing:0px;word-spacing:0px;fill:#000000;fill-opacity:1;stroke:none;font-family:Sans"
         x="241.29105"
         y="664.7915"
         id="text3809"
         sodipodi:linespacing="125%"><tspan
           sodipodi:role="line"
           id="tspan3811"
           x="241.29105"
           y="664.7915"
           style="fill:#ffffff;fill-opacity:0.46759261">Favorite song</tspan></text>
    </g>
    <g
       id="g3813"
       transform="matrix(0.96516787,0,0,0.96516787,715.20204,168.99604)">
      <text
         sodipodi:linespacing="125%"
         id="text3815"
         y="649.7915"
         x="241.29105"
         style="font-size:15.5538578px;font-style:normal;font-weight:normal;line-height:125%;letter-spacing:0px;word-spacing:0px;fill:#000000;fill-opacity:1;stroke:none;font-family:Sans"
         xml:space="preserve"><tspan
           style="fill:#ffffff;fill-opacity:1"
           y="649.7915"
           x="241.29105"
           id="tspan3817"
           sodipodi:role="line">Friend 3</tspan></text>
      <text
         xml:space="preserve"
         style="font-size:15.5538578px;font-style:normal;font-weight:normal;line-height:125%;letter-spacing:0px;word-spacing:0px;fill:#000000;fill-opacity:1;stroke:none;font-family:Sans"
         x="241.29105"
         y="664.7915"
         id="text3819"
         sodipodi:linespacing="125%"><tspan
           sodipodi:role="line"
           id="tspan3821"
           x="241.29105"
           y="664.7915"
           style="fill:#ffffff;fill-opacity:0.46759261">Favorite song</tspan></text>
    </g>
    <g
       id="g3823"
       transform="matrix(0.96516787,0,0,0.96516787,715.20204,209.67099)">
      <text
         sodipodi:linespacing="125%"
         id="text3825"
         y="649.7915"
         x="241.29105"
         style="font-size:15.5538578px;font-style:normal;font-weight:normal;line-height:125%;letter-spacing:0px;word-spacing:0px;fill:#000000;fill-opacity:1;stroke:none;font-family:Sans"
         xml:space="preserve"><tspan
           style="fill:#ffffff;fill-opacity:1"
           y="649.7915"
           x="241.29105"
           id="tspan3827"
           sodipodi:role="line">Friend 4</tspan></text>
      <text
         xml:space="preserve"
         style="font-size:15.5538578px;font-style:normal;font-weight:normal;line-height:125%;letter-spacing:0px;word-spacing:0px;fill:#000000;fill-opacity:1;stroke:none;font-family:Sans"
         x="241.29105"
         y="664.7915"
         id="text3829"
         sodipodi:linespacing="125%"><tspan
           sodipodi:role="line"
           id="tspan3831"
           x="241.29105"
           y="664.7915"
           style="fill:#ffffff;fill-opacity:0.46759261">Favorite song</tspan></text>
    </g>
    <g
       id="g3787"
       transform="matrix(0.96516787,0,0,0.96516787,715.20204,247.58827)">
      <text
         xml:space="preserve"
         style="font-size:15.5538578px;font-style:normal;font-weight:normal;line-height:125%;letter-spacing:0px;word-spacing:0px;fill:#000000;fill-opacity:1;stroke:none;font-family:Sans"
         x="241.29105"
         y="649.7915"
         id="text3783"
         sodipodi:linespacing="125%"><tspan
           sodipodi:role="line"
           id="tspan3785"
           x="241.29105"
           y="649.7915"
           style="fill:#ffffff;fill-opacity:1">Friend 5</tspan></text>
      <text
         sodipodi:linespacing="125%"
         id="text3779"
         y="664.7915"
         x="241.29105"
         style="font-size:15.5538578px;font-style:normal;font-weight:normal;line-height:125%;letter-spacing:0px;word-spacing:0px;fill:#000000;fill-opacity:1;stroke:none;font-family:Sans"
         xml:space="preserve"><tspan
           style="fill:#ffffff;fill-opacity:0.46759261"
           y="664.7915"
           x="241.29105"
           id="tspan3781"
           sodipodi:role="line">Favorite song</tspan></text>
    </g>
    <text
       xml:space="preserve"
       style="font-size:44.8808403px;font-style:normal;font-weight:normal;line-height:125%;letter-spacing:0px;word-spacing:0px;fill:#000000;fill-opacity:1;stroke:none;font-family:Sans"
       x="131.71426"
       y="879.90991"
       id="text3833"
       sodipodi:linespacing="125%"><tspan
         sodipodi:role="line"
         id="tspan3835"
         x="131.71426"
         y="879.90991" /></text>
    <path
       style="fill:#151515;fill-opacity:1;stroke:#ffffff;stroke-width:1.12202096px;stroke-linecap:butt;stroke-linejoin:miter;stroke-opacity:1"
       d="m 1039.4072,759.37925 0,-40.87364 27.6497,27.64981 -14.0252,0 14.4451,25.01968 -4.8278,0 -14.8142,-25.65897 z"
       id="path3839"
       inkscape:connector-curvature="0" />
    <path
       style="opacity:0.4424779;fill:#ffffff;fill-opacity:1;stroke:none"
       id="path3803"
       d="m 795.15668,88.977807 c -4.43847,6.930028 -8.55144,14.059373 -12.85103,21.074483 -8.40944,13.26016 -17.69104,25.91996 -27.14363,38.44632 -9.52548,12.41931 -19.65174,24.3569 -30.51508,35.62309 -9.97795,9.97477 -21.99355,17.42403 -34.0084,24.65044 -12.1954,7.29831 -24.75117,14.06172 -37.78958,19.74401 -6.10381,2.66011 -8.22429,3.34226 -14.49795,5.66313 -17.93694,6.1055 -36.3003,10.82232 -54.644,15.51641 -22.7847,5.72096 -45.71513,10.83952 -68.6298,16.00824 -17.98226,3.83191 -35.9319,7.80416 -53.98082,11.31292 -9.44446,2.01464 -18.86594,4.14454 -28.28328,6.28279 -4.32222,0.92877 -8.68502,1.65652 -13.09555,1.97614 -1.90591,0.11392 -3.81587,0.11115 -5.72422,0.0933 0,0 11.94654,-8.67764 11.94654,-8.67764 l 0,0 c 1.8695,-0.0131 3.74063,-0.0139 5.60661,-0.14668 4.26041,-0.33425 8.48455,-0.99918 12.66113,-1.90539 9.17545,-1.9369 18.34026,-3.93218 27.55328,-5.68413 17.85995,-3.38376 35.62619,-7.22165 53.41943,-10.93643 22.92897,-5.06902 45.85674,-10.17505 68.59856,-16.03775 18.50378,-4.83809 37.0165,-9.74584 55.09161,-16.03573 7.23355,-2.73684 14.30091,-5.62833 21.28877,-8.94963 2.22948,-1.05966 4.45317,-2.13203 6.66065,-3.23678 2.17598,-1.08898 4.06671,-3.11139 6.48884,-3.34395 2.06131,-0.19791 -3.5376,2.15361 -5.30639,3.23042 12.01641,-7.15456 24.06042,-14.49653 34.13013,-24.32043 11.02833,-11.22007 21.30597,-23.13937 30.90557,-35.6066 9.34326,-12.35839 18.46935,-24.88365 26.62336,-38.07054 4.1154,-6.83168 8.0919,-13.75168 11.98572,-20.711791 0,0 13.50953,-5.958262 13.50953,-5.958262 z"
       inkscape:connector-curvature="0"
       transform="translate(0,452.36218)" />
    <path
       style="opacity:0.4424779;fill:#ffffff;fill-opacity:1;stroke:none"
       id="path3807"
       d="m 453.28837,244.71488 c -2.94449,2.81895 -5.55811,5.97722 -8.3292,8.97014 -2.9716,3.33599 -6.0463,6.54988 -9.36528,9.54133 -2.75787,2.47879 -5.78974,4.59722 -8.83785,6.69384 -2.12895,1.44225 -4.06719,3.13401 -6.03869,4.77819 -1.486,1.24685 -2.70699,2.75725 -4.05482,4.14101 0.13053,0.1472 -0.82527,0.61015 -0.61937,0.86791 0.58415,0.73126 2.20104,1.43644 2.93337,1.85954 6.10309,3.5788 12.09801,7.33518 18.19875,10.91825 8.49857,5.09332 17.29758,9.65214 25.89314,14.57401 3.21596,1.74528 6.16083,3.94763 9.35604,5.72013 0,0 -12.36066,7.99577 -12.36066,7.99577 l 0,0 c -3.00396,-1.94802 -5.82881,-4.16609 -8.91519,-5.99387 -8.41408,-5.15512 -17.12747,-9.7928 -25.6996,-14.67642 -6.25227,-3.50488 -12.40956,-7.17565 -18.72346,-10.5702 -1.76655,-0.989 -5.03808,-2.4023 -3.74488,-4.93764 1.26287,-1.5287 2.74689,-2.87613 4.06218,-4.36487 1.97842,-1.70788 3.98469,-3.37482 6.05658,-4.96602 3.12921,-2.03496 6.1752,-4.17132 9.05205,-6.55916 3.33049,-2.95524 6.49509,-6.04921 9.4141,-9.41651 2.73776,-2.93452 5.48577,-5.8773 7.94988,-9.04825 0,0 13.77291,-5.52718 13.77291,-5.52718 z"
       inkscape:connector-curvature="0"
       transform="translate(0,452.36218)" />
    <text
       xml:space="preserve"
       style="font-size:17.69198227px;font-style:normal;font-weight:normal;line-height:125%;letter-spacing:0px;word-spacing:0px;fill:#ffffff;fill-opacity:1;stroke:none;font-family:Sans"
       x="593.03809"
       y="724.39362"
       id="text3810"
       sodipodi:linespacing="125%"><tspan
         sodipodi:role="line"
         id="tspan3812"
         x="593.03809"
         y="724.39362">drag the user</tspan><tspan
         sodipodi:role="line"
         x="593.03809"
         y="746.50861"
         id="tspan3814">from your friends</tspan><tspan
         sodipodi:role="line"
         x="593.03809"
         y="768.6236"
         id="tspan3816">list</tspan></text>
  </g>
</svg>
