<?xml version="1.0" encoding="UTF-8" standalone="no"?>
<!-- Created with Inkscape (http://www.inkscape.org/) -->

<svg
   xmlns:dc="http://purl.org/dc/elements/1.1/"
   xmlns:cc="http://creativecommons.org/ns#"
   xmlns:rdf="http://www.w3.org/1999/02/22-rdf-syntax-ns#"
   xmlns:svg="http://www.w3.org/2000/svg"
   xmlns="http://www.w3.org/2000/svg"
   xmlns:sodipodi="http://sodipodi.sourceforge.net/DTD/sodipodi-0.dtd"
   xmlns:inkscape="http://www.inkscape.org/namespaces/inkscape"
   width="800"
   height="600"
   id="svg2"
   version="1.1"
   inkscape:version="0.48.3.1 r9886"
   sodipodi:docname="radio_sorry.svg"
   inkscape:export-filename="C:\Users\Alexander\Documents\Spotify\Jukeman\img\bg1.png"
   inkscape:export-xdpi="90"
   inkscape:export-ydpi="90">
  <defs
     id="defs4" />
  <sodipodi:namedview
     id="base"
     pagecolor="#000000"
     bordercolor="#666666"
     borderopacity="1.0"
     inkscape:pageopacity="0"
     inkscape:pageshadow="2"
     inkscape:zoom="1"
     inkscape:cx="457.18696"
     inkscape:cy="265.74779"
     inkscape:document-units="px"
     inkscape:current-layer="layer1"
     showgrid="false"
     inkscape:window-width="1600"
     inkscape:window-height="838"
     inkscape:window-x="-8"
     inkscape:window-y="-8"
     inkscape:window-maximized="1" />
  <metadata
     id="metadata7">
    <rdf:RDF>
      <cc:Work
         rdf:about="">
        <dc:format>image/svg+xml</dc:format>
        <dc:type
           rdf:resource="http://purl.org/dc/dcmitype/StillImage" />
        <dc:title></dc:title>
      </cc:Work>
    </rdf:RDF>
  </metadata>
  <g
     inkscape:label="Layer 1"
     inkscape:groupmode="layer"
     id="layer1"
     transform="translate(0,-452.36218)">
    <text
       sodipodi:linespacing="125%"
       id="text3845"
       y="676.435"
       x="1266.9054"
       style="font-size:35.8913002px;font-style:normal;font-weight:normal;line-height:125%;letter-spacing:0px;word-spacing:0px;fill:#77ab00;fill-opacity:1;stroke:none;font-family:Sans"
       xml:space="preserve"><tspan
         id="tspan3847"
         style="font-style:normal;font-variant:normal;font-weight:normal;font-stretch:normal;fill:#77ab00;fill-opacity:1;font-family:Sketch Block;-inkscape-font-specification:Sketch Block"
         y="676.435"
         x="1266.9054"
         sodipodi:role="line"><tspan
   id="tspan3849"
   style="fill:#ffffff;fill-opacity:1">1. </tspan>Drop <tspan
   id="tspan3851"
   style="fill:#ffffff;fill-opacity:1">an user into this box</tspan></tspan></text>
    <text
       sodipodi:linespacing="125%"
       id="text3031"
       y="1071.7279"
       x="1283.5725"
       style="font-size:35.8913002px;font-style:normal;font-weight:normal;line-height:125%;letter-spacing:0px;word-spacing:0px;fill:#ffffff;fill-opacity:1;stroke:none;font-family:Sans"
       xml:space="preserve"><tspan
         id="tspan3033"
         style="font-style:normal;font-variant:normal;font-weight:normal;font-stretch:normal;fill:#ffffff;fill-opacity:1;font-family:Sketch Block;-inkscape-font-specification:Sketch Block"
         y="1071.7279"
         x="1283.5725"
         sodipodi:role="line">2. Enjoy his/her music taste</tspan></text>
    <text
       xml:space="preserve"
       style="font-size:21.88426781px;font-style:normal;font-weight:normal;line-height:125%;letter-spacing:0px;word-spacing:0px;opacity:0.4424779;fill:#ffffff;fill-opacity:1;stroke:none;font-family:Sans"
       x="1265.5969"
       y="723.00928"
       id="text2985"
       sodipodi:linespacing="125%"><tspan
         sodipodi:role="line"
         x="1265.5969"
         y="723.00928"
         style="font-style:normal;font-variant:normal;font-weight:normal;font-stretch:normal;fill:#ffffff;fill-opacity:1;font-family:Sketch Block;-inkscape-font-specification:Sketch Block"
         id="tspan3757">Note: The user needs to have starred or favorites published</tspan></text>
    <rect
       ry="16.028872"
       y="762.39355"
       x="1445.9821"
       height="233.22008"
       width="233.22008"
       id="rect3773"
       style="fill:none;stroke:#ffffff;stroke-width:1.12202096;stroke-opacity:1" />
    <rect
       style="fill:#151515;fill-opacity:1;stroke:#ffffff;stroke-width:1.12202096;stroke-opacity:1"
       id="rect3771"
       width="233.22008"
       height="233.22008"
       x="2030.4512"
       y="844.39355"
       ry="16.028872" />
    <rect
       style="fill:#ffffff;fill-opacity:1;stroke:none"
       id="rect3837"
       width="142.65695"
       height="40.072178"
       x="2114.3674"
       y="858.8667"
       ry="0" />
    <path
       style="fill:none;stroke:#ffffff;stroke-width:0.60599512px;stroke-linecap:butt;stroke-linejoin:miter;stroke-opacity:1"
       d="m 2104.3495,843.65098 0,233.19662"
       id="path3775"
       inkscape:connector-curvature="0" />
    <path
       style="fill:none;stroke:#ffffff;stroke-width:1.12202096px;stroke-linecap:butt;stroke-linejoin:miter;stroke-opacity:1"
       d="m 2103.9488,862.07243 -68.1227,0"
       id="path3777"
       inkscape:connector-curvature="0" />
    <g
       id="g3793"
       transform="matrix(0.96516787,0,0,0.96516787,1923.202,250.33558)"
       style="fill:#151515;fill-opacity:1">
      <text
         sodipodi:linespacing="125%"
         id="text3795"
         y="649.7915"
         x="241.29105"
         style="font-size:15.5538578px;font-style:normal;font-weight:normal;line-height:125%;letter-spacing:0px;word-spacing:0px;fill:#151515;fill-opacity:1;stroke:none;font-family:Sans"
         xml:space="preserve"><tspan
           style="fill:#151515;fill-opacity:1"
           y="649.7915"
           x="241.29105"
           id="tspan3797"
           sodipodi:role="line">Friend 1</tspan></text>
      <text
         xml:space="preserve"
         style="font-size:15.5538578px;font-style:normal;font-weight:normal;line-height:125%;letter-spacing:0px;word-spacing:0px;fill:#151515;fill-opacity:1;stroke:none;font-family:Sans"
         x="241.29105"
         y="664.7915"
         id="text3799"
         sodipodi:linespacing="125%"><tspan
           sodipodi:role="line"
           id="tspan3801"
           x="241.29105"
           y="664.7915"
           style="fill:#151515;fill-opacity:1">Favorite song</tspan></text>
    </g>
    <g
       id="g3803"
       transform="matrix(0.96516787,0,0,0.96516787,1923.202,286.87407)">
      <text
         sodipodi:linespacing="125%"
         id="text3805"
         y="649.7915"
         x="241.29105"
         style="font-size:15.5538578px;font-style:normal;font-weight:normal;line-height:125%;letter-spacing:0px;word-spacing:0px;fill:#000000;fill-opacity:1;stroke:none;font-family:Sans"
         xml:space="preserve"><tspan
           style="fill:#ffffff;fill-opacity:1"
           y="649.7915"
           x="241.29105"
           id="tspan3807"
           sodipodi:role="line">Friend 2</tspan></text>
      <text
         xml:space="preserve"
         style="font-size:15.5538578px;font-style:normal;font-weight:normal;line-height:125%;letter-spacing:0px;word-spacing:0px;fill:#000000;fill-opacity:1;stroke:none;font-family:Sans"
         x="241.29105"
         y="664.7915"
         id="text3809"
         sodipodi:linespacing="125%"><tspan
           sodipodi:role="line"
           id="tspan3811"
           x="241.29105"
           y="664.7915"
           style="fill:#ffffff;fill-opacity:0.46759261">Favorite song</tspan></text>
    </g>
    <g
       id="g3813"
       transform="matrix(0.96516787,0,0,0.96516787,1923.202,330.99604)">
      <text
         sodipodi:linespacing="125%"
         id="text3815"
         y="649.7915"
         x="241.29105"
         style="font-size:15.5538578px;font-style:normal;font-weight:normal;line-height:125%;letter-spacing:0px;word-spacing:0px;fill:#000000;fill-opacity:1;stroke:none;font-family:Sans"
         xml:space="preserve"><tspan
           style="fill:#ffffff;fill-opacity:1"
           y="649.7915"
           x="241.29105"
           id="tspan3817"
           sodipodi:role="line">Friend 3</tspan></text>
      <text
         xml:space="preserve"
         style="font-size:15.5538578px;font-style:normal;font-weight:normal;line-height:125%;letter-spacing:0px;word-spacing:0px;fill:#000000;fill-opacity:1;stroke:none;font-family:Sans"
         x="241.29105"
         y="664.7915"
         id="text3819"
         sodipodi:linespacing="125%"><tspan
           sodipodi:role="line"
           id="tspan3821"
           x="241.29105"
           y="664.7915"
           style="fill:#ffffff;fill-opacity:0.46759261">Favorite song</tspan></text>
    </g>
    <g
       id="g3823"
       transform="matrix(0.96516787,0,0,0.96516787,1923.202,371.67099)">
      <text
         sodipodi:linespacing="125%"
         id="text3825"
         y="649.7915"
         x="241.29105"
         style="font-size:15.5538578px;font-style:normal;font-weight:normal;line-height:125%;letter-spacing:0px;word-spacing:0px;fill:#000000;fill-opacity:1;stroke:none;font-family:Sans"
         xml:space="preserve"><tspan
           style="fill:#ffffff;fill-opacity:1"
           y="649.7915"
           x="241.29105"
           id="tspan3827"
           sodipodi:role="line">Friend 4</tspan></text>
      <text
         xml:space="preserve"
         style="font-size:15.5538578px;font-style:normal;font-weight:normal;line-height:125%;letter-spacing:0px;word-spacing:0px;fill:#000000;fill-opacity:1;stroke:none;font-family:Sans"
         x="241.29105"
         y="664.7915"
         id="text3829"
         sodipodi:linespacing="125%"><tspan
           sodipodi:role="line"
           id="tspan3831"
           x="241.29105"
           y="664.7915"
           style="fill:#ffffff;fill-opacity:0.46759261">Favorite song</tspan></text>
    </g>
    <g
       id="g3787"
       transform="matrix(0.96516787,0,0,0.96516787,1923.202,409.58827)">
      <text
         xml:space="preserve"
         style="font-size:15.5538578px;font-style:normal;font-weight:normal;line-height:125%;letter-spacing:0px;word-spacing:0px;fill:#000000;fill-opacity:1;stroke:none;font-family:Sans"
         x="241.29105"
         y="649.7915"
         id="text3783"
         sodipodi:linespacing="125%"><tspan
           sodipodi:role="line"
           id="tspan3785"
           x="241.29105"
           y="649.7915"
           style="fill:#ffffff;fill-opacity:1">Friend 5</tspan></text>
      <text
         sodipodi:linespacing="125%"
         id="text3779"
         y="664.7915"
         x="241.29105"
         style="font-size:15.5538578px;font-style:normal;font-weight:normal;line-height:125%;letter-spacing:0px;word-spacing:0px;fill:#000000;fill-opacity:1;stroke:none;font-family:Sans"
         xml:space="preserve"><tspan
           style="fill:#ffffff;fill-opacity:0.46759261"
           y="664.7915"
           x="241.29105"
           id="tspan3781"
           sodipodi:role="line">Favorite song</tspan></text>
    </g>
    <text
       xml:space="preserve"
       style="font-size:44.8808403px;font-style:normal;font-weight:normal;line-height:125%;letter-spacing:0px;word-spacing:0px;fill:#000000;fill-opacity:1;stroke:none;font-family:Sans"
       x="131.71426"
       y="879.90991"
       id="text3833"
       sodipodi:linespacing="125%"><tspan
         sodipodi:role="line"
         id="tspan3835"
         x="131.71426"
         y="879.90991" /></text>
    <path
       style="fill:#151515;fill-opacity:1;stroke:#ffffff;stroke-width:1.12202096px;stroke-linecap:butt;stroke-linejoin:miter;stroke-opacity:1"
       d="m 2247.4072,921.37925 0,-40.87364 27.6497,27.64981 -14.0252,0 14.4451,25.01968 -4.8278,0 -14.8142,-25.65897 z"
       id="path3839"
       inkscape:connector-curvature="0" />
    <path
       style="opacity:0.4424779;fill:#ffffff;fill-opacity:1;stroke:none"
       id="path3803"
       d="m 2003.1567,703.33999 c -4.4385,6.93002 -8.5515,14.05937 -12.8511,21.07448 -8.4094,13.26016 -17.691,25.91996 -27.1436,38.44632 -9.5255,12.41931 -19.6517,24.3569 -30.5151,35.62309 -9.9779,9.97477 -21.9935,17.42403 -34.0084,24.65044 -12.1954,7.29831 -24.7511,14.06172 -37.7895,19.74401 -6.1039,2.66011 -8.2243,3.34226 -14.498,5.66313 -17.9369,6.1055 -36.3003,10.82232 -54.644,15.51641 -22.7847,5.72096 -45.7151,10.83952 -68.6298,16.00824 -17.9823,3.83191 -35.9319,7.80416 -53.9808,11.31292 -9.4445,2.01464 -18.866,4.14454 -28.2833,6.28279 -4.3222,0.92877 -8.685,1.65652 -13.0955,1.97614 -1.906,0.11392 -3.8159,0.11115 -5.7243,0.0933 0,0 11.9466,-8.67764 11.9466,-8.67764 l 0,0 c 1.8695,-0.0131 3.7406,-0.0139 5.6066,-0.14668 4.2604,-0.33425 8.4845,-0.99918 12.6611,-1.90539 9.1755,-1.9369 18.3403,-3.93218 27.5533,-5.68413 17.8599,-3.38376 35.6262,-7.22165 53.4194,-10.93643 22.929,-5.06902 45.8568,-10.17505 68.5986,-16.03775 18.5038,-4.83809 37.0165,-9.74584 55.0916,-16.03573 7.2335,-2.73684 14.3009,-5.62833 21.2888,-8.94963 2.2294,-1.05966 4.4531,-2.13203 6.6606,-3.23678 2.176,-1.08898 4.0667,-3.11139 6.4889,-3.34395 2.0613,-0.19791 -3.5376,2.15361 -5.3064,3.23042 12.0164,-7.15456 24.0604,-14.49653 34.1301,-24.32043 11.0283,-11.22007 21.306,-23.13937 30.9056,-35.6066 9.3432,-12.35839 18.4693,-24.88365 26.6233,-38.07054 4.1154,-6.83168 8.0919,-13.75168 11.9857,-20.71179 0,0 13.5096,-5.95826 13.5096,-5.95826 z"
       inkscape:connector-curvature="0" />
    <path
       style="opacity:0.4424779;fill:#ffffff;fill-opacity:1;stroke:none"
       id="path3807"
       d="m 1661.2884,859.07706 c -2.9445,2.81895 -5.5581,5.97722 -8.3292,8.97014 -2.9716,3.33599 -6.0463,6.54988 -9.3653,9.54133 -2.7579,2.47879 -5.7898,4.59722 -8.8379,6.69384 -2.1289,1.44225 -4.0672,3.13401 -6.0387,4.77819 -1.486,1.24685 -2.7069,2.75725 -4.0548,4.14101 0.1306,0.1472 -0.8252,0.61015 -0.6193,0.86791 0.5841,0.73126 2.201,1.43644 2.9333,1.85954 6.1031,3.5788 12.098,7.33518 18.1988,10.91825 8.4985,5.09332 17.2976,9.65214 25.8931,14.57401 3.216,1.74528 6.1608,3.94763 9.3561,5.72013 0,0 -12.3607,7.99577 -12.3607,7.99577 l 0,0 c -3.004,-1.94802 -5.8288,-4.16609 -8.9152,-5.99387 -8.4141,-5.15512 -17.1275,-9.7928 -25.6996,-14.67642 -6.2523,-3.50488 -12.4096,-7.17565 -18.7235,-10.5702 -1.7665,-0.989 -5.038,-2.4023 -3.7448,-4.93764 1.2628,-1.5287 2.7469,-2.87613 4.0621,-4.36487 1.9785,-1.70788 3.9847,-3.37482 6.0566,-4.96602 3.1292,-2.03496 6.1752,-4.17132 9.0521,-6.55916 3.3305,-2.95524 6.4951,-6.04921 9.4141,-9.41651 2.7377,-2.93452 5.4857,-5.8773 7.9499,-9.04825 0,0 13.7729,-5.52718 13.7729,-5.52718 z"
       inkscape:connector-curvature="0" />
    <text
       xml:space="preserve"
       style="font-size:17.69198227px;font-style:normal;font-weight:normal;line-height:125%;letter-spacing:0px;word-spacing:0px;fill:#ffffff;fill-opacity:1;stroke:none;font-family:Sans"
       x="1801.0381"
       y="886.39362"
       id="text3810"
       sodipodi:linespacing="125%"><tspan
         sodipodi:role="line"
         id="tspan3812"
         x="1801.0381"
         y="886.39362">drag the user</tspan><tspan
         sodipodi:role="line"
         x="1801.0381"
         y="908.50861"
         id="tspan3814">from your friends</tspan><tspan
         sodipodi:role="line"
         x="1801.0381"
         y="930.6236"
         id="tspan3816">list</tspan></text>
    <text
       xml:space="preserve"
       style="font-size:40px;font-style:normal;font-weight:normal;line-height:125%;letter-spacing:0px;word-spacing:0px;fill:#ffffff;fill-opacity:1;stroke:none;font-family:Sans"
       x="390.05847"
       y="704.36218"
       id="text3818"
       sodipodi:linespacing="125%"><tspan
         sodipodi:role="line"
         x="390.05847"
         y="704.36218"
         id="tspan3822"
         style="font-size:40px;font-style:normal;font-variant:normal;font-weight:bold;font-stretch:normal;text-align:center;line-height:125%;writing-mode:lr-tb;text-anchor:middle;fill:#ffffff;fill-opacity:1;font-family:Sketch Block;-inkscape-font-specification:Sketch Block Bold">Sorry we could not create a</tspan><tspan
         sodipodi:role="line"
         x="390.05847"
         y="754.36218"
         style="font-size:40px;font-style:normal;font-variant:normal;font-weight:bold;font-stretch:normal;text-align:center;line-height:125%;writing-mode:lr-tb;text-anchor:middle;fill:#ffffff;fill-opacity:1;font-family:Sketch Block;-inkscape-font-specification:Sketch Block Bold"
         id="tspan3826"> station for that user.</tspan></text>
  </g>
</svg>
